<mxfile host="app.diagrams.net" modified="2024-03-04T16:55:29.563Z" agent="Mozilla/5.0 (Windows NT 10.0; Win64; x64) AppleWebKit/537.36 (KHTML, like Gecko) Chrome/122.0.0.0 Safari/537.36" etag="qIEjguWR8jPMInmjCKOZ" version="24.0.0" type="device">
  <diagram name="Page-1" id="nVyd6tfRNDx3OrmpVOMU">
    <mxGraphModel dx="1050" dy="522" grid="1" gridSize="10" guides="1" tooltips="1" connect="1" arrows="1" fold="1" page="1" pageScale="1" pageWidth="850" pageHeight="1100" math="0" shadow="0">
      <root>
        <mxCell id="0" />
        <mxCell id="1" parent="0" />
        <mxCell id="u1mlXZd1HEPNZpuk0B9Z-1" value="User" style="shape=umlActor;verticalLabelPosition=bottom;verticalAlign=top;html=1;" parent="1" vertex="1">
          <mxGeometry x="30" y="295" width="30" height="60" as="geometry" />
        </mxCell>
        <mxCell id="u1mlXZd1HEPNZpuk0B9Z-2" value="Monitor Service" style="shape=umlFrame;whiteSpace=wrap;html=1;pointerEvents=0;" parent="1" vertex="1">
          <mxGeometry x="150" y="40" width="400" height="600" as="geometry" />
        </mxCell>
        <mxCell id="u1mlXZd1HEPNZpuk0B9Z-3" value="Http Endpoint" style="ellipse;whiteSpace=wrap;html=1;fillColor=#fff2cc;strokeColor=#d6b656;" parent="1" vertex="1">
          <mxGeometry x="280" y="70" width="140" height="70" as="geometry" />
        </mxCell>
        <mxCell id="u1mlXZd1HEPNZpuk0B9Z-4" value="Scrape Logs" style="ellipse;whiteSpace=wrap;html=1;fillColor=#fff2cc;strokeColor=#d6b656;" parent="1" vertex="1">
          <mxGeometry x="280" y="290" width="140" height="70" as="geometry" />
        </mxCell>
        <mxCell id="u1mlXZd1HEPNZpuk0B9Z-6" value="Configure Discord Webhook" style="ellipse;whiteSpace=wrap;html=1;fillColor=#fff2cc;strokeColor=#d6b656;" parent="1" vertex="1">
          <mxGeometry x="280" y="410" width="140" height="70" as="geometry" />
        </mxCell>
        <mxCell id="u1mlXZd1HEPNZpuk0B9Z-8" value="Receive Discord Alert" style="ellipse;whiteSpace=wrap;html=1;fillColor=#fff2cc;strokeColor=#d6b656;" parent="1" vertex="1">
          <mxGeometry x="280" y="540" width="140" height="70" as="geometry" />
        </mxCell>
        <mxCell id="VdxQ3EjeSOOBh47-_xUQ-1" value="" style="endArrow=none;html=1;rounded=0;exitX=0;exitY=0.5;exitDx=0;exitDy=0;entryX=0.5;entryY=0.5;entryDx=0;entryDy=0;entryPerimeter=0;" parent="1" source="u1mlXZd1HEPNZpuk0B9Z-8" target="u1mlXZd1HEPNZpuk0B9Z-1" edge="1">
          <mxGeometry width="50" height="50" relative="1" as="geometry">
            <mxPoint x="510" y="500" as="sourcePoint" />
            <mxPoint x="560" y="450" as="targetPoint" />
          </mxGeometry>
        </mxCell>
        <mxCell id="VdxQ3EjeSOOBh47-_xUQ-4" value="" style="endArrow=classic;html=1;rounded=0;exitX=0.5;exitY=1;exitDx=0;exitDy=0;entryX=0.5;entryY=0;entryDx=0;entryDy=0;" parent="1" source="u1mlXZd1HEPNZpuk0B9Z-7" target="u1mlXZd1HEPNZpuk0B9Z-4" edge="1">
          <mxGeometry width="50" height="50" relative="1" as="geometry">
            <mxPoint x="510" y="300" as="sourcePoint" />
            <mxPoint x="560" y="250" as="targetPoint" />
          </mxGeometry>
        </mxCell>
        <mxCell id="VdxQ3EjeSOOBh47-_xUQ-6" value="" style="endArrow=classic;html=1;rounded=0;exitX=0.5;exitY=1;exitDx=0;exitDy=0;" parent="1" source="u1mlXZd1HEPNZpuk0B9Z-4" target="u1mlXZd1HEPNZpuk0B9Z-6" edge="1">
          <mxGeometry width="50" height="50" relative="1" as="geometry">
            <mxPoint x="510" y="300" as="sourcePoint" />
            <mxPoint x="560" y="250" as="targetPoint" />
          </mxGeometry>
        </mxCell>
        <mxCell id="VdxQ3EjeSOOBh47-_xUQ-7" value="" style="endArrow=classic;html=1;rounded=0;exitX=0.5;exitY=1;exitDx=0;exitDy=0;entryX=0.5;entryY=0;entryDx=0;entryDy=0;" parent="1" source="u1mlXZd1HEPNZpuk0B9Z-6" target="u1mlXZd1HEPNZpuk0B9Z-8" edge="1">
          <mxGeometry width="50" height="50" relative="1" as="geometry">
            <mxPoint x="510" y="500" as="sourcePoint" />
            <mxPoint x="560" y="450" as="targetPoint" />
          </mxGeometry>
        </mxCell>
        <mxCell id="VdxQ3EjeSOOBh47-_xUQ-8" value="" style="endArrow=classic;html=1;rounded=0;exitX=0.5;exitY=1;exitDx=0;exitDy=0;entryX=0.5;entryY=0;entryDx=0;entryDy=0;" parent="1" source="u1mlXZd1HEPNZpuk0B9Z-3" target="u1mlXZd1HEPNZpuk0B9Z-7" edge="1">
          <mxGeometry width="50" height="50" relative="1" as="geometry">
            <mxPoint x="350" y="140" as="sourcePoint" />
            <mxPoint x="350" y="170" as="targetPoint" />
            <Array as="points" />
          </mxGeometry>
        </mxCell>
        <mxCell id="u1mlXZd1HEPNZpuk0B9Z-7" value="Configure Scrape Interval" style="ellipse;whiteSpace=wrap;html=1;fillColor=#fff2cc;strokeColor=#d6b656;" parent="1" vertex="1">
          <mxGeometry x="280" y="180" width="140" height="70" as="geometry" />
        </mxCell>
        <mxCell id="VdxQ3EjeSOOBh47-_xUQ-9" value="" style="endArrow=none;html=1;rounded=0;exitX=0;exitY=0.5;exitDx=0;exitDy=0;entryX=0.5;entryY=0.5;entryDx=0;entryDy=0;entryPerimeter=0;" parent="1" source="u1mlXZd1HEPNZpuk0B9Z-6" target="u1mlXZd1HEPNZpuk0B9Z-1" edge="1">
          <mxGeometry width="50" height="50" relative="1" as="geometry">
            <mxPoint x="510" y="500" as="sourcePoint" />
            <mxPoint x="100" y="310" as="targetPoint" />
          </mxGeometry>
        </mxCell>
        <mxCell id="VdxQ3EjeSOOBh47-_xUQ-10" value="" style="endArrow=none;html=1;rounded=0;entryX=0;entryY=0.5;entryDx=0;entryDy=0;exitX=0.5;exitY=0.5;exitDx=0;exitDy=0;exitPerimeter=0;" parent="1" source="u1mlXZd1HEPNZpuk0B9Z-1" target="u1mlXZd1HEPNZpuk0B9Z-7" edge="1">
          <mxGeometry width="50" height="50" relative="1" as="geometry">
            <mxPoint x="70" y="270" as="sourcePoint" />
            <mxPoint x="560" y="250" as="targetPoint" />
          </mxGeometry>
        </mxCell>
        <mxCell id="VdxQ3EjeSOOBh47-_xUQ-11" value="" style="endArrow=none;html=1;rounded=0;exitX=0.5;exitY=0.5;exitDx=0;exitDy=0;exitPerimeter=0;entryX=0;entryY=0.5;entryDx=0;entryDy=0;" parent="1" source="u1mlXZd1HEPNZpuk0B9Z-1" target="u1mlXZd1HEPNZpuk0B9Z-3" edge="1">
          <mxGeometry width="50" height="50" relative="1" as="geometry">
            <mxPoint x="510" y="300" as="sourcePoint" />
            <mxPoint x="560" y="250" as="targetPoint" />
          </mxGeometry>
        </mxCell>
      </root>
    </mxGraphModel>
  </diagram>
</mxfile>
